<mxfile host="app.diagrams.net" modified="2022-01-29T23:47:06.503Z" agent="5.0 (Windows NT 10.0; Win64; x64) AppleWebKit/537.36 (KHTML, like Gecko) Chrome/97.0.4692.99 Safari/537.36" etag="ZuOOLMSXsvYM3fW3UbbM" version="16.5.2" type="github">
  <diagram id="prtHgNgQTEPvFCAcTncT" name="Page-1">
    <mxGraphModel dx="861" dy="490" grid="1" gridSize="10" guides="1" tooltips="1" connect="1" arrows="1" fold="1" page="1" pageScale="1" pageWidth="827" pageHeight="1169" math="0" shadow="0">
      <root>
        <mxCell id="0" />
        <mxCell id="1" parent="0" />
        <mxCell id="g3FacJts447bwH2BUUsu-43" value="" style="shape=process;whiteSpace=wrap;html=1;backgroundOutline=1;rounded=1;gradientColor=#E6E6E6;fillColor=#FFFFFF;strokeColor=default;" parent="1" vertex="1">
          <mxGeometry x="80" y="9" width="600" height="230" as="geometry" />
        </mxCell>
        <mxCell id="g3FacJts447bwH2BUUsu-56" value="" style="shape=process;whiteSpace=wrap;html=1;backgroundOutline=1;rounded=1;gradientColor=#CCCCCC;fillColor=#E6E6E6;strokeColor=default;" parent="1" vertex="1">
          <mxGeometry x="80" y="239" width="600" height="230" as="geometry" />
        </mxCell>
        <mxCell id="g3FacJts447bwH2BUUsu-67" value="" style="shape=process;whiteSpace=wrap;html=1;backgroundOutline=1;rounded=1;fillColor=#CCCCCC;gradientColor=#B3B3B3;strokeColor=default;" parent="1" vertex="1">
          <mxGeometry x="80" y="468.5" width="600" height="230" as="geometry" />
        </mxCell>
        <mxCell id="g3FacJts447bwH2BUUsu-77" value="" style="shape=process;whiteSpace=wrap;html=1;backgroundOutline=1;fillColor=#B3B3B3;strokeColor=default;rounded=1;gradientColor=#999999;" parent="1" vertex="1">
          <mxGeometry x="80" y="699" width="600" height="230" as="geometry" />
        </mxCell>
        <mxCell id="g3FacJts447bwH2BUUsu-108" value="" style="shape=process;whiteSpace=wrap;html=1;backgroundOutline=1;rounded=1;fillColor=#999999;gradientColor=#808080;strokeColor=default;" parent="1" vertex="1">
          <mxGeometry x="80" y="929" width="600" height="230" as="geometry" />
        </mxCell>
        <mxCell id="g3FacJts447bwH2BUUsu-110" value="" style="ellipse;whiteSpace=wrap;html=1;aspect=fixed;fillColor=#d0cee2;strokeColor=#56517e;rounded=1;" parent="1" vertex="1">
          <mxGeometry x="280" y="1004" width="80" height="80" as="geometry" />
        </mxCell>
        <mxCell id="g3FacJts447bwH2BUUsu-99" value="&lt;font style=&quot;font-size: 16px&quot; color=&quot;#56517e&quot;&gt;2&lt;/font&gt;" style="ellipse;whiteSpace=wrap;html=1;aspect=fixed;fillColor=#d0cee2;strokeColor=#56517e;rounded=1;fontFamily=Luxurious Roman;fontSource=https%3A%2F%2Ffonts.googleapis.com%2Fcss%3Ffamily%3DLuxurious%2BRoman;" parent="1" vertex="1">
          <mxGeometry x="280" y="794" width="80" height="80" as="geometry" />
        </mxCell>
        <mxCell id="xXZptcnk_brkqJqVmBfV-11" value="&lt;font style=&quot;font-size: 14px&quot;&gt;&lt;b&gt;1&lt;/b&gt;&lt;/font&gt;" style="ellipse;whiteSpace=wrap;html=1;aspect=fixed;fontSize=16;fillColor=none;strokeColor=#56517E;fontColor=#56517E;fontFamily=Luxurious Roman;fontSource=https%3A%2F%2Ffonts.googleapis.com%2Fcss%3Ffamily%3DLuxurious%2BRoman;fontStyle=0" parent="1" vertex="1">
          <mxGeometry x="300" y="754" width="40" height="40" as="geometry" />
        </mxCell>
        <mxCell id="g3FacJts447bwH2BUUsu-69" value="&lt;font style=&quot;font-size: 14px;&quot;&gt;&lt;font color=&quot;#56517e&quot; data-font-src=&quot;https://fonts.googleapis.com/css?family=Gentium+Book+Basic&quot; style=&quot;font-size: 14px;&quot;&gt;Hand Size&lt;br style=&quot;font-size: 14px;&quot;&gt;&lt;/font&gt;&lt;/font&gt;" style="ellipse;whiteSpace=wrap;html=1;aspect=fixed;fillColor=#d0cee2;strokeColor=#56517e;rounded=1;fontFamily=Gentium Book Basic;fontSource=https%3A%2F%2Ffonts.googleapis.com%2Fcss%3Ffamily%3DGentium%2BBook%2BBasic;fontSize=14;" parent="1" vertex="1">
          <mxGeometry x="280" y="543.5" width="80" height="80" as="geometry" />
        </mxCell>
        <mxCell id="g3FacJts447bwH2BUUsu-58" value="" style="ellipse;whiteSpace=wrap;html=1;aspect=fixed;fillColor=#d0cee2;strokeColor=#56517e;rounded=1;fontColor=#56517E;fontFamily=Gentium Book Basic;fontSize=14;fontSource=https%3A%2F%2Ffonts.googleapis.com%2Fcss%3Ffamily%3DGentium%2BBook%2BBasic;fontStyle=0;verticalAlign=middle;" parent="1" vertex="1">
          <mxGeometry x="280" y="314" width="80" height="80" as="geometry" />
        </mxCell>
        <mxCell id="g3FacJts447bwH2BUUsu-45" value="" style="ellipse;whiteSpace=wrap;html=1;aspect=fixed;fillColor=#d0cee2;strokeColor=#56517e;rounded=1;" parent="1" vertex="1">
          <mxGeometry x="280" y="84" width="80" height="80" as="geometry" />
        </mxCell>
        <mxCell id="g3FacJts447bwH2BUUsu-44" value="" style="ellipse;whiteSpace=wrap;html=1;aspect=fixed;fillColor=#b0e3e6;strokeColor=#0e8088;rounded=1;" parent="1" vertex="1">
          <mxGeometry x="400" y="84" width="80" height="80" as="geometry" />
        </mxCell>
        <mxCell id="g3FacJts447bwH2BUUsu-46" value="" style="ellipse;whiteSpace=wrap;html=1;aspect=fixed;fillColor=#bac8d3;strokeColor=#23445d;rounded=1;" parent="1" vertex="1">
          <mxGeometry x="520" y="84" width="80" height="80" as="geometry" />
        </mxCell>
        <mxCell id="g3FacJts447bwH2BUUsu-47" value="" style="ellipse;whiteSpace=wrap;html=1;aspect=fixed;fillColor=#fad7ac;strokeColor=#b46504;rounded=1;" parent="1" vertex="1">
          <mxGeometry x="160" y="84" width="80" height="80" as="geometry" />
        </mxCell>
        <mxCell id="g3FacJts447bwH2BUUsu-57" value="" style="ellipse;whiteSpace=wrap;html=1;aspect=fixed;fillColor=#b0e3e6;strokeColor=#0e8088;rounded=1;fontColor=#0E8088;fontFamily=Gentium Book Basic;fontSize=14;fontSource=https%3A%2F%2Ffonts.googleapis.com%2Fcss%3Ffamily%3DGentium%2BBook%2BBasic;fontStyle=0;verticalAlign=middle;" parent="1" vertex="1">
          <mxGeometry x="400" y="314" width="80" height="80" as="geometry" />
        </mxCell>
        <mxCell id="g3FacJts447bwH2BUUsu-59" value="" style="ellipse;whiteSpace=wrap;html=1;aspect=fixed;fillColor=#bac8d3;strokeColor=#23445d;rounded=1;fontColor=#23445D;fontFamily=Gentium Book Basic;fontSize=14;fontSource=https%3A%2F%2Ffonts.googleapis.com%2Fcss%3Ffamily%3DGentium%2BBook%2BBasic;fontStyle=0;verticalAlign=middle;" parent="1" vertex="1">
          <mxGeometry x="520" y="314" width="80" height="80" as="geometry" />
        </mxCell>
        <mxCell id="g3FacJts447bwH2BUUsu-60" value="" style="ellipse;whiteSpace=wrap;html=1;aspect=fixed;fillColor=#fad7ac;strokeColor=#b46504;rounded=1;fontColor=#B46504;fontFamily=Gentium Book Basic;fontSize=14;fontSource=https%3A%2F%2Ffonts.googleapis.com%2Fcss%3Ffamily%3DGentium%2BBook%2BBasic;fontStyle=0;verticalAlign=middle;" parent="1" vertex="1">
          <mxGeometry x="160" y="314" width="80" height="80" as="geometry" />
        </mxCell>
        <mxCell id="g3FacJts447bwH2BUUsu-68" value="&lt;font color=&quot;#0e8088&quot; style=&quot;font-size: 14px&quot;&gt;Draw Card&lt;/font&gt;" style="ellipse;whiteSpace=wrap;html=1;aspect=fixed;fillColor=#b0e3e6;strokeColor=#0e8088;rounded=1;fontSize=14;fontFamily=Gentium Book Basic;fontSource=https%3A%2F%2Ffonts.googleapis.com%2Fcss%3Ffamily%3DGentium%2BBook%2BBasic;" parent="1" vertex="1">
          <mxGeometry x="400" y="543.5" width="80" height="80" as="geometry" />
        </mxCell>
        <mxCell id="g3FacJts447bwH2BUUsu-70" value="&lt;font data-font-src=&quot;https://fonts.googleapis.com/css?family=Gentium+Book+Basic&quot; face=&quot;Gentium Book Basic&quot; style=&quot;font-size: 14px&quot; color=&quot;#23445d&quot;&gt;Draw Dice&lt;/font&gt;" style="ellipse;whiteSpace=wrap;html=1;aspect=fixed;fillColor=#bac8d3;strokeColor=#23445D;rounded=1;" parent="1" vertex="1">
          <mxGeometry x="520" y="543.5" width="80" height="80" as="geometry" />
        </mxCell>
        <mxCell id="g3FacJts447bwH2BUUsu-71" value="&lt;span style=&quot;font-size: 14px;&quot;&gt;&lt;font color=&quot;#b46504&quot; style=&quot;font-size: 14px;&quot;&gt;Hand Size&lt;/font&gt;&lt;br style=&quot;font-size: 14px;&quot;&gt;&lt;/span&gt;" style="ellipse;whiteSpace=wrap;html=1;aspect=fixed;fillColor=#fad7ac;strokeColor=#b46504;rounded=1;fontFamily=Gentium Book Basic;fontSource=https%3A%2F%2Ffonts.googleapis.com%2Fcss%3Ffamily%3DGentium%2BBook%2BBasic;fontSize=14;" parent="1" vertex="1">
          <mxGeometry x="160" y="543.5" width="80" height="80" as="geometry" />
        </mxCell>
        <mxCell id="g3FacJts447bwH2BUUsu-83" value="&lt;span style=&quot;font-size: 18px&quot;&gt;SACRIFICE &lt;b&gt;ANY&amp;nbsp;&lt;/b&gt;&lt;b style=&quot;font-size: 18px&quot;&gt;TWO &lt;/b&gt;CREATURES OF A KIND &lt;b&gt;DURING&amp;nbsp;&lt;/b&gt;&lt;b style=&quot;font-size: 18px&quot;&gt;A HUNT&lt;br style=&quot;font-size: 18px&quot;&gt;&lt;/b&gt;TO ADVANCE&amp;nbsp;&lt;b&gt;ONE&amp;nbsp;&lt;/b&gt;&lt;b style=&quot;font-size: 18px&quot;&gt;MATCHING PAWN&amp;nbsp;&lt;/b&gt;HERE&lt;/span&gt;" style="text;html=1;strokeColor=none;fillColor=none;align=center;verticalAlign=middle;whiteSpace=wrap;rounded=1;fontFamily=Gentium Book Basic;fontSource=https%3A%2F%2Ffonts.googleapis.com%2Fcss%3Ffamily%3DGentium%2BBook%2BBasic;fontStyle=0;fontSize=18;" parent="1" vertex="1">
          <mxGeometry x="140" y="710" width="480" height="30" as="geometry" />
        </mxCell>
        <mxCell id="g3FacJts447bwH2BUUsu-98" value="&lt;font style=&quot;font-size: 16px&quot;&gt;2&lt;/font&gt;" style="ellipse;whiteSpace=wrap;html=1;aspect=fixed;fillColor=#b0e3e6;strokeColor=#0E8088;rounded=1;fontColor=#0E8088;fontFamily=Luxurious Roman;fontSource=https%3A%2F%2Ffonts.googleapis.com%2Fcss%3Ffamily%3DLuxurious%2BRoman;" parent="1" vertex="1">
          <mxGeometry x="400" y="794" width="80" height="80" as="geometry" />
        </mxCell>
        <mxCell id="g3FacJts447bwH2BUUsu-100" value="&lt;font style=&quot;font-size: 16px&quot;&gt;2&lt;/font&gt;" style="ellipse;whiteSpace=wrap;html=1;aspect=fixed;fillColor=#bac8d3;strokeColor=#23445D;rounded=1;fontColor=#23445D;fontFamily=Luxurious Roman;fontSource=https%3A%2F%2Ffonts.googleapis.com%2Fcss%3Ffamily%3DLuxurious%2BRoman;" parent="1" vertex="1">
          <mxGeometry x="520" y="794" width="80" height="80" as="geometry" />
        </mxCell>
        <mxCell id="g3FacJts447bwH2BUUsu-101" value="&lt;font style=&quot;font-size: 16px&quot;&gt;2&lt;/font&gt;" style="ellipse;whiteSpace=wrap;html=1;aspect=fixed;fillColor=#fad7ac;strokeColor=#b46504;rounded=1;fontColor=#B46504;fontFamily=Luxurious Roman;fontSource=https%3A%2F%2Ffonts.googleapis.com%2Fcss%3Ffamily%3DLuxurious%2BRoman;" parent="1" vertex="1">
          <mxGeometry x="160" y="794" width="80" height="80" as="geometry" />
        </mxCell>
        <mxCell id="g3FacJts447bwH2BUUsu-109" value="" style="ellipse;whiteSpace=wrap;html=1;aspect=fixed;fillColor=#b0e3e6;strokeColor=#0e8088;rounded=1;" parent="1" vertex="1">
          <mxGeometry x="400" y="1004" width="80" height="80" as="geometry" />
        </mxCell>
        <mxCell id="g3FacJts447bwH2BUUsu-111" value="" style="ellipse;whiteSpace=wrap;html=1;aspect=fixed;fillColor=#bac8d3;strokeColor=#23445d;rounded=1;" parent="1" vertex="1">
          <mxGeometry x="520" y="1004" width="80" height="80" as="geometry" />
        </mxCell>
        <mxCell id="g3FacJts447bwH2BUUsu-112" value="" style="ellipse;whiteSpace=wrap;html=1;aspect=fixed;fillColor=#fad7ac;strokeColor=#b46504;rounded=1;" parent="1" vertex="1">
          <mxGeometry x="160" y="1004" width="80" height="80" as="geometry" />
        </mxCell>
        <mxCell id="xXZptcnk_brkqJqVmBfV-1" value="&lt;font style=&quot;font-size: 14px&quot;&gt;&lt;b&gt;1&lt;/b&gt;&lt;/font&gt;" style="ellipse;whiteSpace=wrap;html=1;aspect=fixed;fontSize=16;fillColor=none;strokeColor=#0E8088;fontColor=#0E8088;fontFamily=Luxurious Roman;fontSource=https%3A%2F%2Ffonts.googleapis.com%2Fcss%3Ffamily%3DLuxurious%2BRoman;" parent="1" vertex="1">
          <mxGeometry x="420" y="754" width="40" height="40" as="geometry" />
        </mxCell>
        <mxCell id="xXZptcnk_brkqJqVmBfV-13" value="&lt;font style=&quot;font-size: 14px&quot; color=&quot;#b46504&quot;&gt;&lt;b&gt;1&lt;/b&gt;&lt;/font&gt;" style="ellipse;whiteSpace=wrap;html=1;aspect=fixed;fontSize=16;fillColor=none;strokeColor=#B46504;fontFamily=Luxurious Roman;fontSource=https%3A%2F%2Ffonts.googleapis.com%2Fcss%3Ffamily%3DLuxurious%2BRoman;" parent="1" vertex="1">
          <mxGeometry x="180" y="754" width="40" height="40" as="geometry" />
        </mxCell>
        <mxCell id="xXZptcnk_brkqJqVmBfV-15" value="&lt;font style=&quot;font-size: 14px&quot;&gt;&lt;b&gt;1&lt;/b&gt;&lt;/font&gt;" style="ellipse;whiteSpace=wrap;html=1;aspect=fixed;fontSize=16;fillColor=none;strokeColor=#23445D;fontColor=#23445D;fontFamily=Luxurious Roman;fontSource=https%3A%2F%2Ffonts.googleapis.com%2Fcss%3Ffamily%3DLuxurious%2BRoman;" parent="1" vertex="1">
          <mxGeometry x="540" y="754" width="40" height="40" as="geometry" />
        </mxCell>
        <mxCell id="xXZptcnk_brkqJqVmBfV-32" value="When you sacrifice a creature whose Pawn is here, you may draw from the Shroud another of the same kind and cast it immediately." style="text;strokeColor=none;fillColor=none;align=center;verticalAlign=middle;rounded=0;fontSize=15;whiteSpace=wrap;html=1;spacingTop=0;spacingLeft=3;spacingRight=3;fontFamily=Georgia;fontStyle=2" parent="1" vertex="1">
          <mxGeometry x="140" y="1120" width="480" height="30" as="geometry" />
        </mxCell>
        <mxCell id="xXZptcnk_brkqJqVmBfV-35" value="&lt;span style=&quot;font-size: 18px&quot;&gt;SACRIFICE &lt;b style=&quot;font-size: 18px&quot;&gt;A&amp;nbsp;MONSTER&lt;/b&gt; TO ADVANCE&lt;br style=&quot;font-size: 18px&quot;&gt;THE &lt;b style=&quot;font-size: 18px&quot;&gt;MATCHING PAWN&lt;/b&gt;&amp;nbsp; HERE&lt;/span&gt;" style="text;html=1;strokeColor=none;fillColor=none;align=center;verticalAlign=middle;whiteSpace=wrap;rounded=1;fontFamily=Gentium Book Basic;fontSource=https%3A%2F%2Ffonts.googleapis.com%2Fcss%3Ffamily%3DGentium%2BBook%2BBasic;fontStyle=0;fontSize=18;" parent="1" vertex="1">
          <mxGeometry x="140" y="940" width="480" height="30" as="geometry" />
        </mxCell>
        <mxCell id="xXZptcnk_brkqJqVmBfV-130" value="T5" style="whiteSpace=wrap;html=1;aspect=fixed;labelBackgroundColor=none;labelBorderColor=none;fontSize=36;fontColor=#000000;fillColor=#999999;gradientColor=none;verticalAlign=middle;horizontal=0;fontFamily=Luxurious Roman;fontSource=https%3A%2F%2Ffonts.googleapis.com%2Fcss%3Ffamily%3DLuxurious%2BRoman;fontStyle=0" parent="1" vertex="1">
          <mxGeometry x="620" y="929" width="60" height="60" as="geometry" />
        </mxCell>
        <mxCell id="xXZptcnk_brkqJqVmBfV-131" value="TRIAL START" style="text;html=1;strokeColor=none;fillColor=none;align=center;verticalAlign=middle;horizontal=0;fontStyle=1;rounded=0;fontColor=#660033;labelBackgroundColor=none;labelBorderColor=none;fontSize=22;fontFamily=Gentium Book Basic;fontSource=https%3A%2F%2Ffonts.googleapis.com%2Fcss%3Ffamily%3DGentium%2BBook%2BBasic;" parent="1" vertex="1">
          <mxGeometry x="80" y="10" width="60" height="229" as="geometry" />
        </mxCell>
        <mxCell id="xXZptcnk_brkqJqVmBfV-132" value="&lt;font&gt;T1&lt;/font&gt;" style="whiteSpace=wrap;html=1;aspect=fixed;labelBackgroundColor=none;labelBorderColor=none;fontSize=36;fontColor=#000000;fillColor=#FFFFFF;gradientColor=none;verticalAlign=middle;horizontal=0;fontFamily=Luxurious Roman;fontSource=https%3A%2F%2Ffonts.googleapis.com%2Fcss%3Ffamily%3DLuxurious%2BRoman;fontStyle=0" parent="1" vertex="1">
          <mxGeometry x="620" y="9" width="60" height="60" as="geometry" />
        </mxCell>
        <mxCell id="xXZptcnk_brkqJqVmBfV-174" value="&lt;span style=&quot;font-size: 18px;&quot;&gt;SACRIFICE &lt;b style=&quot;font-size: 18px;&quot;&gt;ANY&amp;nbsp;TWO&amp;nbsp;&lt;/b&gt;CREATURES &lt;b style=&quot;font-size: 18px;&quot;&gt;SIMULTANEOUSLY&lt;/b&gt;&lt;br style=&quot;font-size: 18px;&quot;&gt;TO ADVANCE &lt;b style=&quot;font-size: 18px;&quot;&gt;ONE MATCHING PAWN&lt;/b&gt; HERE&lt;/span&gt;" style="text;html=1;strokeColor=none;fillColor=none;align=center;verticalAlign=middle;whiteSpace=wrap;rounded=1;fontFamily=Gentium Book Basic;fontSource=https%3A%2F%2Ffonts.googleapis.com%2Fcss%3Ffamily%3DGentium%2BBook%2BBasic;fontStyle=0;fontSize=18;" parent="1" vertex="1">
          <mxGeometry x="140" y="479.5" width="480" height="30" as="geometry" />
        </mxCell>
        <mxCell id="ZHAniX2luiYQjnmn3kyG-10" value="&lt;font color=&quot;#b46504&quot; style=&quot;font-size: 15px&quot;&gt;&amp;nbsp; &amp;nbsp; +&lt;font face=&quot;Luxurious Roman&quot; data-font-src=&quot;https://fonts.googleapis.com/css?family=Luxurious+Roman&quot;&gt;1&lt;/font&gt; Monster&lt;/font&gt;&amp;nbsp; &amp;nbsp; &amp;nbsp; &amp;nbsp; &amp;nbsp; &amp;nbsp; &amp;nbsp; &amp;nbsp;&lt;font color=&quot;#56517e&quot; style=&quot;font-size: 15px&quot;&gt;+&lt;font face=&quot;Luxurious Roman&quot; data-font-src=&quot;https://fonts.googleapis.com/css?family=Luxurious+Roman&quot;&gt;1&lt;/font&gt; Adversity&lt;/font&gt;&amp;nbsp; &amp;nbsp; &amp;nbsp; &amp;nbsp; &amp;nbsp; &amp;nbsp;&lt;font color=&quot;#0e8088&quot;&gt;Draw &lt;font face=&quot;Luxurious Roman&quot; data-font-src=&quot;https://fonts.googleapis.com/css?family=Luxurious+Roman&quot;&gt;2&lt;/font&gt;, Keep &lt;font face=&quot;Luxurious Roman&quot; data-font-src=&quot;https://fonts.googleapis.com/css?family=Luxurious+Roman&quot;&gt;1&lt;/font&gt;&lt;/font&gt;&amp;nbsp; &amp;nbsp; &amp;nbsp; &amp;nbsp; &amp;nbsp; &amp;nbsp; &amp;nbsp;&amp;nbsp;&lt;font color=&quot;#23445d&quot;&gt;+&lt;font data-font-src=&quot;https://fonts.googleapis.com/css?family=Luxurious+Roman&quot; face=&quot;Luxurious Roman&quot;&gt;1&lt;/font&gt;/Hunt&lt;/font&gt;" style="text;html=1;strokeColor=none;fillColor=none;align=left;verticalAlign=middle;whiteSpace=wrap;rounded=0;fontSize=15;spacingLeft=6;spacingRight=6;fontFamily=Gentium Book Basic;fontSource=https%3A%2F%2Ffonts.googleapis.com%2Fcss%3Ffamily%3DGentium%2BBook%2BBasic;" parent="1" vertex="1">
          <mxGeometry x="140" y="619.5" width="480" height="30" as="geometry" />
        </mxCell>
        <mxCell id="ZHAniX2luiYQjnmn3kyG-12" value="The first creature sacrificed to advance a Pawn here&lt;br&gt;triggers its Culling effect (again)." style="text;html=1;strokeColor=none;fillColor=none;align=center;verticalAlign=middle;whiteSpace=wrap;rounded=0;fontSize=15;spacingLeft=3;spacingRight=3;fontFamily=Georgia;fontStyle=2" parent="1" vertex="1">
          <mxGeometry x="140" y="890" width="480" height="30" as="geometry" />
        </mxCell>
        <mxCell id="ZHAniX2luiYQjnmn3kyG-28" value="&lt;span style=&quot;font-size: 18px&quot;&gt;SACRIFICE A &lt;b style=&quot;font-size: 18px&quot;&gt;SINGLE&lt;/b&gt; CREATURE&lt;br style=&quot;font-size: 18px&quot;&gt;TO ADVANCE THE &lt;b style=&quot;font-size: 18px&quot;&gt;MATCHING PAWN&lt;/b&gt; HERE&lt;br style=&quot;font-size: 18px&quot;&gt;&lt;/span&gt;" style="text;html=1;strokeColor=none;fillColor=none;align=center;verticalAlign=middle;whiteSpace=wrap;rounded=1;fontFamily=Gentium Book Basic;fontStyle=0;fontSize=18;fontSource=https%3A%2F%2Ffonts.googleapis.com%2Fcss%3Ffamily%3DGentium%2BBook%2BBasic;" parent="1" vertex="1">
          <mxGeometry x="140" y="250" width="480" height="30" as="geometry" />
        </mxCell>
        <mxCell id="ZHAniX2luiYQjnmn3kyG-29" value="&lt;font color=&quot;#660033&quot;&gt;When you advance the Pawns here, you gain the indicated benefits for the remainder of the current Contract.&lt;/font&gt;" style="text;html=1;strokeColor=none;fillColor=none;align=center;verticalAlign=middle;whiteSpace=wrap;rounded=0;fontSize=15;spacingLeft=3;spacingRight=3;fontFamily=Georgia;fontStyle=2" parent="1" vertex="1">
          <mxGeometry x="140" y="659.5" width="480" height="30" as="geometry" />
        </mxCell>
        <mxCell id="oXEXAH-3kzme5YINiiaa-7" value="&lt;font style=&quot;font-size: 20px;&quot;&gt;PERMANENT BOON&lt;br style=&quot;font-size: 20px;&quot;&gt;&lt;/font&gt;" style="text;html=1;strokeColor=none;fillColor=none;align=center;verticalAlign=middle;whiteSpace=wrap;horizontal=0;fontStyle=1;rounded=0;fontColor=#660033;fontFamily=Gentium Book Basic;fontSource=https%3A%2F%2Ffonts.googleapis.com%2Fcss%3Ffamily%3DGentium%2BBook%2BBasic;fontSize=20;" parent="1" vertex="1">
          <mxGeometry x="80" y="468.5" width="60" height="230" as="geometry" />
        </mxCell>
        <mxCell id="oXEXAH-3kzme5YINiiaa-9" value="&lt;span&gt;&lt;font style=&quot;font-size: 36px&quot; face=&quot;Luxurious Roman&quot; data-font-src=&quot;https://fonts.googleapis.com/css?family=Luxurious+Roman&quot;&gt;&lt;b&gt;3&lt;/b&gt;&lt;/font&gt;&lt;br&gt;&lt;i&gt;points&lt;br&gt;per&lt;br&gt;Pawn&lt;/i&gt;&lt;br&gt;&lt;/span&gt;" style="text;html=1;strokeColor=none;fillColor=none;align=center;verticalAlign=middle;whiteSpace=wrap;rounded=0;fontSize=12;fontColor=#660033;labelBackgroundColor=none;fontFamily=Georgia;" parent="1" vertex="1">
          <mxGeometry x="620" y="760" width="60" height="169" as="geometry" />
        </mxCell>
        <mxCell id="oXEXAH-3kzme5YINiiaa-10" value="&lt;span&gt;&lt;font style=&quot;font-size: 36px&quot; face=&quot;Luxurious Roman&quot; data-font-src=&quot;https://fonts.googleapis.com/css?family=Luxurious+Roman&quot;&gt;&lt;b&gt;2&lt;/b&gt;&lt;/font&gt;&lt;br&gt;&lt;i&gt;points&lt;br&gt;per&lt;br&gt;Pawn&lt;/i&gt;&lt;br&gt;&lt;/span&gt;" style="text;html=1;strokeColor=none;fillColor=none;align=center;verticalAlign=middle;whiteSpace=wrap;rounded=0;fontSize=12;fontColor=#660033;labelBackgroundColor=none;fontFamily=Georgia;" parent="1" vertex="1">
          <mxGeometry x="620" y="468.5" width="60" height="230" as="geometry" />
        </mxCell>
        <mxCell id="oXEXAH-3kzme5YINiiaa-11" value="&lt;span&gt;&lt;span style=&quot;font-size: 36px&quot;&gt;&lt;b&gt;&lt;font face=&quot;Luxurious Roman&quot; data-font-src=&quot;https://fonts.googleapis.com/css?family=Luxurious+Roman&quot;&gt;2&lt;/font&gt;&lt;/b&gt;&lt;/span&gt;&lt;br&gt;&lt;i&gt;points&lt;br&gt;per&lt;br&gt;Pawn&lt;/i&gt;&lt;br&gt;&lt;/span&gt;" style="text;html=1;strokeColor=none;fillColor=none;align=center;verticalAlign=middle;whiteSpace=wrap;rounded=0;fontSize=12;fontColor=#660033;labelBackgroundColor=none;fontFamily=Georgia;" parent="1" vertex="1">
          <mxGeometry x="620" y="990" width="60" height="169" as="geometry" />
        </mxCell>
        <mxCell id="oXEXAH-3kzme5YINiiaa-12" value="&lt;span&gt;&lt;span style=&quot;font-size: 36px&quot;&gt;&lt;b&gt;&lt;font face=&quot;Luxurious Roman&quot; data-font-src=&quot;https://fonts.googleapis.com/css?family=Luxurious+Roman&quot;&gt;1&lt;/font&gt;&lt;/b&gt;&lt;/span&gt;&lt;br&gt;&lt;i&gt;point&lt;br&gt;per&lt;br&gt;Pawn&lt;/i&gt;&lt;br&gt;&lt;/span&gt;" style="text;html=1;strokeColor=none;fillColor=none;align=center;verticalAlign=middle;whiteSpace=wrap;rounded=0;fontSize=12;fontColor=#660033;labelBackgroundColor=none;fontFamily=Georgia;" parent="1" vertex="1">
          <mxGeometry x="620" y="300" width="60" height="169" as="geometry" />
        </mxCell>
        <mxCell id="xXZptcnk_brkqJqVmBfV-172" value="&amp;nbsp;FINISH LINE&lt;br&gt;&lt;span style=&quot;font-family: &amp;#34;georgia&amp;#34; ; font-style: italic ; font-weight: 400&quot;&gt;&lt;font style=&quot;font-size: 12px&quot;&gt;Nemesis wins if&amp;nbsp;&lt;/font&gt;&lt;/span&gt;&lt;b style=&quot;font-family: &amp;#34;luxurious roman&amp;#34;&quot;&gt;&lt;font style=&quot;font-size: 13px&quot;&gt;3&lt;/font&gt;&lt;/b&gt;&lt;span style=&quot;font-family: &amp;#34;georgia&amp;#34; ; font-style: italic ; font-weight: 400&quot;&gt;&lt;font style=&quot;font-size: 12px&quot;&gt;&amp;nbsp;Pawns reach it.&lt;/font&gt;&lt;/span&gt;" style="text;html=1;strokeColor=none;fillColor=none;align=center;verticalAlign=middle;whiteSpace=wrap;horizontal=0;fontStyle=1;rounded=0;fontColor=#660033;labelBackgroundColor=none;labelBorderColor=none;fontSize=22;fontFamily=Gentium Book Basic;fontSource=https%3A%2F%2Ffonts.googleapis.com%2Fcss%3Ffamily%3DGentium%2BBook%2BBasic;" parent="1" vertex="1">
          <mxGeometry x="80" y="930" width="60" height="229" as="geometry" />
        </mxCell>
        <mxCell id="U8BhNucMNzUFlrN5dAb0-1" value="" style="shape=process;whiteSpace=wrap;html=1;backgroundOutline=1;rounded=1;gradientColor=#B3B3B3;fillColor=#CCCCCC;strokeColor=default;" parent="1" vertex="1">
          <mxGeometry x="80" y="469" width="600" height="230" as="geometry" />
        </mxCell>
        <mxCell id="U8BhNucMNzUFlrN5dAb0-2" value="&lt;font face=&quot;Luxurious Roman&quot; data-font-src=&quot;https://fonts.googleapis.com/css?family=Luxurious+Roman&quot; style=&quot;font-size: 14px;&quot;&gt;2&lt;/font&gt; PWR" style="ellipse;whiteSpace=wrap;html=1;aspect=fixed;fillColor=#d0cee2;strokeColor=#56517e;rounded=1;fontColor=#56517E;fontFamily=Gentium Book Basic;fontSize=14;fontSource=https%3A%2F%2Ffonts.googleapis.com%2Fcss%3Ffamily%3DGentium%2BBook%2BBasic;fontStyle=0;verticalAlign=middle;" parent="1" vertex="1">
          <mxGeometry x="280" y="544" width="80" height="80" as="geometry" />
        </mxCell>
        <mxCell id="U8BhNucMNzUFlrN5dAb0-3" value="&lt;font face=&quot;Luxurious Roman&quot; data-font-src=&quot;https://fonts.googleapis.com/css?family=Luxurious+Roman&quot; style=&quot;font-size: 14px;&quot;&gt;3&lt;/font&gt; PWR" style="ellipse;whiteSpace=wrap;html=1;aspect=fixed;fillColor=#b0e3e6;strokeColor=#0e8088;rounded=1;fontColor=#0E8088;fontFamily=Gentium Book Basic;fontSize=14;fontSource=https%3A%2F%2Ffonts.googleapis.com%2Fcss%3Ffamily%3DGentium%2BBook%2BBasic;fontStyle=0;verticalAlign=middle;" parent="1" vertex="1">
          <mxGeometry x="400" y="544" width="80" height="80" as="geometry" />
        </mxCell>
        <mxCell id="U8BhNucMNzUFlrN5dAb0-4" value="&lt;font face=&quot;Luxurious Roman&quot; data-font-src=&quot;https://fonts.googleapis.com/css?family=Luxurious+Roman&quot; style=&quot;font-size: 14px;&quot;&gt;4&lt;/font&gt; PWR" style="ellipse;whiteSpace=wrap;html=1;aspect=fixed;fillColor=#bac8d3;strokeColor=#23445d;rounded=1;fontColor=#23445D;fontFamily=Gentium Book Basic;fontSize=14;fontSource=https%3A%2F%2Ffonts.googleapis.com%2Fcss%3Ffamily%3DGentium%2BBook%2BBasic;fontStyle=0;verticalAlign=middle;" parent="1" vertex="1">
          <mxGeometry x="520" y="544" width="80" height="80" as="geometry" />
        </mxCell>
        <mxCell id="U8BhNucMNzUFlrN5dAb0-5" value="&lt;font face=&quot;Luxurious Roman&quot; data-font-src=&quot;https://fonts.googleapis.com/css?family=Luxurious+Roman&quot; style=&quot;font-size: 14px;&quot;&gt;1&lt;/font&gt; PWR" style="ellipse;whiteSpace=wrap;html=1;aspect=fixed;fillColor=#fad7ac;strokeColor=#b46504;rounded=1;fontColor=#B46504;fontFamily=Gentium Book Basic;fontSize=14;fontSource=https%3A%2F%2Ffonts.googleapis.com%2Fcss%3Ffamily%3DGentium%2BBook%2BBasic;fontStyle=0;verticalAlign=middle;" parent="1" vertex="1">
          <mxGeometry x="160" y="544" width="80" height="80" as="geometry" />
        </mxCell>
        <mxCell id="U8BhNucMNzUFlrN5dAb0-8" value="&lt;font color=&quot;#660033&quot; style=&quot;font-size: 15px;&quot;&gt;Creatures whose Pawn is here or further below start with 2 PWR in their favored zone.&lt;/font&gt;" style="text;html=1;strokeColor=none;fillColor=none;align=center;verticalAlign=middle;whiteSpace=wrap;rounded=0;fontSize=15;spacingLeft=3;spacingRight=3;fontFamily=Georgia;fontStyle=2;" parent="1" vertex="1">
          <mxGeometry x="140" y="660" width="480" height="30" as="geometry" />
        </mxCell>
        <mxCell id="U8BhNucMNzUFlrN5dAb0-9" value="&lt;span style=&quot;font-size: 18px&quot;&gt;SACRIFICE A &lt;b style=&quot;font-size: 18px&quot;&gt;SINGLE&lt;/b&gt; CREATURE OF &lt;b&gt;EQUAL POWER&lt;/b&gt;&lt;br style=&quot;font-size: 18px&quot;&gt;TO ADVANCE THE &lt;b style=&quot;font-size: 18px&quot;&gt;MATCHING PAWN&lt;/b&gt; HERE&lt;br style=&quot;font-size: 18px&quot;&gt;&lt;/span&gt;" style="text;html=1;strokeColor=none;fillColor=none;align=center;verticalAlign=middle;whiteSpace=wrap;rounded=1;fontFamily=Gentium Book Basic;fontStyle=0;fontSize=18;fontSource=https%3A%2F%2Ffonts.googleapis.com%2Fcss%3Ffamily%3DGentium%2BBook%2BBasic;" parent="1" vertex="1">
          <mxGeometry x="140" y="480" width="480" height="30" as="geometry" />
        </mxCell>
        <mxCell id="U8BhNucMNzUFlrN5dAb0-10" value="&lt;span&gt;&lt;span style=&quot;font-size: 36px&quot;&gt;&lt;b&gt;&lt;font face=&quot;Luxurious Roman&quot; data-font-src=&quot;https://fonts.googleapis.com/css?family=Luxurious+Roman&quot;&gt;2&lt;/font&gt;&lt;/b&gt;&lt;/span&gt;&lt;br&gt;&lt;i&gt;points&lt;br&gt;per&lt;br&gt;Pawn&lt;/i&gt;&lt;br&gt;&lt;/span&gt;" style="text;html=1;strokeColor=none;fillColor=none;align=center;verticalAlign=middle;whiteSpace=wrap;rounded=0;fontSize=12;fontColor=#660033;labelBackgroundColor=none;fontFamily=Georgia;" parent="1" vertex="1">
          <mxGeometry x="620" y="530" width="60" height="169" as="geometry" />
        </mxCell>
        <mxCell id="H7TIcAhUCh_Lnk_xDXhT-4" value="&lt;font&gt;T2&lt;br&gt;&lt;/font&gt;" style="whiteSpace=wrap;html=1;aspect=fixed;labelBackgroundColor=none;labelBorderColor=none;fontSize=36;fontColor=#000000;fillColor=#E6E6E6;gradientColor=none;verticalAlign=middle;horizontal=0;fontFamily=Luxurious Roman;fontSource=https%3A%2F%2Ffonts.googleapis.com%2Fcss%3Ffamily%3DLuxurious%2BRoman;fontStyle=0" vertex="1" parent="1">
          <mxGeometry x="620" y="239" width="60" height="60" as="geometry" />
        </mxCell>
        <mxCell id="H7TIcAhUCh_Lnk_xDXhT-5" value="&lt;font&gt;T3&lt;br&gt;&lt;/font&gt;" style="whiteSpace=wrap;html=1;aspect=fixed;labelBackgroundColor=none;labelBorderColor=none;fontSize=36;fontColor=#000000;fillColor=#CCCCCC;gradientColor=none;verticalAlign=middle;horizontal=0;fontFamily=Luxurious Roman;fontSource=https%3A%2F%2Ffonts.googleapis.com%2Fcss%3Ffamily%3DLuxurious%2BRoman;fontStyle=0" vertex="1" parent="1">
          <mxGeometry x="620" y="469" width="60" height="60" as="geometry" />
        </mxCell>
        <mxCell id="H7TIcAhUCh_Lnk_xDXhT-6" value="&lt;font&gt;T4&lt;br&gt;&lt;/font&gt;" style="whiteSpace=wrap;html=1;aspect=fixed;labelBackgroundColor=none;labelBorderColor=none;fontSize=36;fontColor=#000000;fillColor=#B3B3B3;gradientColor=none;verticalAlign=middle;horizontal=0;fontFamily=Luxurious Roman;fontSource=https%3A%2F%2Ffonts.googleapis.com%2Fcss%3Ffamily%3DLuxurious%2BRoman;fontStyle=0" vertex="1" parent="1">
          <mxGeometry x="620" y="699" width="60" height="60" as="geometry" />
        </mxCell>
        <mxCell id="H7TIcAhUCh_Lnk_xDXhT-7" value="&lt;font style=&quot;font-size: 20px&quot;&gt;POWER RAISE&lt;br style=&quot;font-size: 20px&quot;&gt;&lt;/font&gt;" style="text;html=1;strokeColor=none;fillColor=none;align=center;verticalAlign=middle;whiteSpace=wrap;horizontal=0;fontStyle=1;rounded=0;fontColor=#660033;fontFamily=Gentium Book Basic;fontSource=https%3A%2F%2Ffonts.googleapis.com%2Fcss%3Ffamily%3DGentium%2BBook%2BBasic;fontSize=20;" vertex="1" parent="1">
          <mxGeometry x="80" y="520" width="60" height="180" as="geometry" />
        </mxCell>
        <mxCell id="H7TIcAhUCh_Lnk_xDXhT-8" value="&lt;font&gt;2&lt;/font&gt;" style="ellipse;whiteSpace=wrap;html=1;aspect=fixed;labelBackgroundColor=none;labelBorderColor=none;fontSize=36;fontColor=#660033;fillColor=#CCCCCC;gradientColor=none;verticalAlign=middle;horizontal=0;fontFamily=Luxurious Roman;fontSource=https%3A%2F%2Ffonts.googleapis.com%2Fcss%3Ffamily%3DLuxurious%2BRoman;" vertex="1" parent="1">
          <mxGeometry x="80" y="468.5" width="70" height="70" as="geometry" />
        </mxCell>
      </root>
    </mxGraphModel>
  </diagram>
</mxfile>
